<?xml version="1.0" encoding="UTF-8"?>
<!--Generator: Apple Native CoreSVG 175-->
<!DOCTYPE svg
PUBLIC "-//W3C//DTD SVG 1.1//EN"
       "http://www.w3.org/Graphics/SVG/1.1/DTD/svg11.dtd">
<svg version="1.1" xmlns="http://www.w3.org/2000/svg" xmlns:xlink="http://www.w3.org/1999/xlink" width="17.2119" height="12.5171">
 <g>
  <rect height="12.5171" opacity="0" width="17.2119" x="0" y="0"/>
  <path d="M2.99561 10.2466Q2.67334 10.2466 2.47559 10.0488Q2.27783 9.85107 2.27783 9.54346L2.27783 8.18848Q2.27783 7.87354 2.47559 7.67944Q2.67334 7.48535 2.99561 7.48535L4.79004 7.48535Q5.1123 7.48535 5.31006 7.67944Q5.50781 7.87354 5.50781 8.18848L5.50781 9.54346Q5.50781 9.85107 5.31006 10.0488Q5.1123 10.2466 4.79004 10.2466ZM0 4.62158L0 2.95898L17.2119 2.95898L17.2119 4.62158ZM2.2998 12.5171L14.9121 12.5171Q16.062 12.5171 16.637 11.9495Q17.2119 11.3818 17.2119 10.2539L17.2119 2.27783Q17.2119 1.1499 16.637 0.578613Q16.062 0.00732422 14.9121 0.00732422L2.2998 0.00732422Q1.1499 0.00732422 0.574951 0.574951Q0 1.14258 0 2.27783L0 10.2539Q0 11.3818 0.574951 11.9495Q1.1499 12.5171 2.2998 12.5171Z" fill="#3b82f6"/>
 </g>
</svg>
