<?xml version="1.0" encoding="UTF-8"?>
<!--Generator: Apple Native CoreSVG 175-->
<!DOCTYPE svg
PUBLIC "-//W3C//DTD SVG 1.1//EN"
       "http://www.w3.org/Graphics/SVG/1.1/DTD/svg11.dtd">
<svg version="1.1" xmlns="http://www.w3.org/2000/svg" xmlns:xlink="http://www.w3.org/1999/xlink" width="14.9414" height="14.9487">
 <g>
  <rect height="14.9487" opacity="0" width="14.9414" x="0" y="0"/>
  <path d="M7.4707 14.9487Q9.00146 14.9487 10.3528 14.3628Q11.7041 13.7769 12.7368 12.7441Q13.7695 11.7114 14.3555 10.3601Q14.9414 9.00879 14.9414 7.47803Q14.9414 5.94727 14.3555 4.59595Q13.7695 3.24463 12.7368 2.21191Q11.7041 1.1792 10.3491 0.593262Q8.99414 0.00732422 7.46338 0.00732422Q5.93262 0.00732422 4.5813 0.593262Q3.22998 1.1792 2.20093 2.21191Q1.17188 3.24463 0.585938 4.59595Q0 5.94727 0 7.47803Q0 9.00879 0.585938 10.3601Q1.17188 11.7114 2.20459 12.7441Q3.2373 13.7769 4.58862 14.3628Q5.93994 14.9487 7.4707 14.9487Z" fill="rgba(59,130,246,0.25)"/>
  <path d="M5.22217 11.1987Q4.60693 11.1987 4.29199 10.8948Q3.97705 10.5908 3.97705 9.98291L3.97705 5.90332Q3.97705 5.29541 4.29199 4.99512Q4.60693 4.69482 5.22217 4.69482L5.84473 4.69482Q5.85938 4.07227 6.33179 3.61816Q6.8042 3.16406 7.4707 3.16406Q8.13721 3.16406 8.61328 3.61816Q9.08936 4.07227 9.09668 4.69482L9.71924 4.69482Q10.3345 4.69482 10.6494 4.99512Q10.9644 5.29541 10.9644 5.90332L10.9644 9.98291Q10.9644 10.5835 10.6677 10.8911Q10.3711 11.1987 9.84375 11.1987ZM6.57715 4.69482L8.36426 4.69482Q8.34961 4.31396 8.11157 4.08691Q7.87354 3.85986 7.4707 3.85986Q7.06787 3.85986 6.82983 4.08691Q6.5918 4.31396 6.57715 4.69482Z" fill="#3b82f6"/>
 </g>
</svg>
